<svg xmlns="http://www.w3.org/2000/svg" version="1.1" xmlns:xlink="http://www.w3.org/1999/xlink" xmlns:svgjs="http://svgjs.dev/svgjs" viewBox="0 0 5.184283098210949 2.0052705872031265"><g transform="matrix(1,0,0,1,0.2625983928090876,0.2846721943940388)"><g><path d=" M 0.0765 0.9794999999999999 Q 0.06 0.9794999999999999 0.043500000000000004 0.975 Q 0.027 0.9704999999999999 0.0195 0.957 Q 0.0135 0.945 0.021 0.92775 Q 0.0285 0.9105 0.042 0.897 Q 0.054 0.885 0.07275 0.873 Q 0.0915 0.861 0.1125 0.8534999999999999 L 0.1155 0.8534999999999999 Q 0.123 0.8534999999999999 0.123 0.85875 Q 0.123 0.864 0.117 0.8684999999999999 Q 0.09 0.882 0.075 0.9015 Q 0.0645 0.9135 0.0645 0.9269999999999999 Q 0.0645 0.951 0.093 0.951 Q 0.1245 0.951 0.16125 0.93225 Q 0.198 0.9135 0.23175 0.8827499999999999 Q 0.2655 0.852 0.28650000000000003 0.8175 Q 0.3075 0.7829999999999999 0.3075 0.7515 Q 0.3075 0.7304999999999999 0.28500000000000003 0.7132499999999999 Q 0.2625 0.696 0.23550000000000001 0.68175 Q 0.2085 0.6675 0.195 0.6585 Q 0.1785 0.6465 0.165 0.63375 Q 0.1515 0.621 0.14400000000000002 0.606 Q 0.132 0.627 0.11325 0.65625 Q 0.0945 0.6855 0.069 0.717 Q 0.06 0.726 0.051000000000000004 0.726 Q 0.042 0.726 0.042 0.7184999999999999 Q 0.042 0.714 0.0495 0.7035 Q 0.09 0.6555 0.1095 0.615 Q 0.129 0.5745 0.1365 0.5534999999999999 Q 0.14250000000000002 0.51 0.177 0.471 Q 0.2115 0.43199999999999994 0.261 0.40274999999999994 Q 0.3105 0.37349999999999994 0.36225 0.357 Q 0.41400000000000003 0.3404999999999999 0.4545 0.3404999999999999 Q 0.495 0.3404999999999999 0.5265 0.3554999999999999 Q 0.558 0.37049999999999994 0.558 0.40349999999999997 Q 0.558 0.4215 0.5475 0.44249999999999995 Q 0.534 0.471 0.5025000000000001 0.49349999999999994 Q 0.501 0.49499999999999994 0.498 0.49499999999999994 Q 0.486 0.49499999999999994 0.486 0.4845 Q 0.486 0.477 0.4935 0.4695 Q 0.5055000000000001 0.45899999999999996 0.513 0.44399999999999995 Q 0.5205 0.42899999999999994 0.5205 0.4155 Q 0.5205 0.38849999999999996 0.489 0.38849999999999996 Q 0.4665 0.38849999999999996 0.4365 0.39674999999999994 Q 0.40650000000000003 0.40499999999999997 0.37875000000000003 0.41624999999999995 Q 0.35100000000000003 0.42749999999999994 0.333 0.43649999999999994 Q 0.2955 0.45449999999999996 0.264 0.48074999999999996 Q 0.2325 0.5069999999999999 0.20400000000000001 0.546 Q 0.1845 0.5714999999999999 0.1845 0.594 Q 0.1845 0.621 0.2205 0.6435 Q 0.258 0.6645 0.29475 0.6839999999999999 Q 0.3315 0.7035 0.357 0.726 Q 0.3825 0.7484999999999999 0.3825 0.78 Q 0.3825 0.8145 0.339 0.8624999999999999 Q 0.312 0.8925 0.26625 0.9195 Q 0.2205 0.9465 0.1695 0.963 Q 0.11850000000000001 0.9794999999999999 0.0765 0.9794999999999999 M 0.5925307617187501 0.9195 Q 0.56553076171875 0.9195 0.54378076171875 0.9075 Q 0.5220307617187501 0.8955 0.51153076171875 0.8624999999999999 Q 0.5100307617187501 0.858 0.50928076171875 0.8534999999999999 Q 0.50853076171875 0.849 0.50853076171875 0.843 Q 0.50853076171875 0.813 0.5220307617187501 0.768 Q 0.53553076171875 0.723 0.55503076171875 0.6809999999999999 Q 0.54603076171875 0.693 0.53403076171875 0.7102499999999999 Q 0.5220307617187501 0.7275 0.49953076171875 0.7545 Q 0.49353076171875 0.7605 0.48603076171875004 0.7605 Q 0.47553076171875003 0.7605 0.47553076171875003 0.7484999999999999 Q 0.47553076171875003 0.7394999999999999 0.48153076171875003 0.7334999999999999 Q 0.52053076171875 0.6839999999999999 0.5512807617187501 0.645 Q 0.58203076171875 0.606 0.59703076171875 0.579 Q 0.59703076171875 0.576 0.60603076171875 0.5602499999999999 Q 0.61503076171875 0.5445 0.63003076171875 0.516 Q 0.61803076171875 0.5175 0.6097807617187501 0.51825 Q 0.60153076171875 0.5189999999999999 0.59553076171875 0.5189999999999999 Q 0.58503076171875 0.5189999999999999 0.5775307617187501 0.51 Q 0.57003076171875 0.5009999999999999 0.57603076171875 0.4875 Q 0.58353076171875 0.46649999999999997 0.60903076171875 0.46349999999999997 Q 0.63453076171875 0.46049999999999996 0.65403076171875 0.45899999999999996 Q 0.65553076171875 0.45599999999999996 0.66003076171875 0.45599999999999996 Q 0.67803076171875 0.423 0.6945307617187501 0.39149999999999996 Q 0.71103076171875 0.36 0.72228076171875 0.33899999999999997 Q 0.7335307617187501 0.31799999999999995 0.7335307617187501 0.3165 Q 0.76353076171875 0.26849999999999996 0.77253076171875 0.2527499999999999 Q 0.78153076171875 0.237 0.79653076171875 0.23399999999999999 Q 0.81303076171875 0.23249999999999993 0.83178076171875 0.23549999999999993 Q 0.8505307617187501 0.23849999999999993 0.8565307617187501 0.249 Q 0.86103076171875 0.255 0.86103076171875 0.264 Q 0.86103076171875 0.27749999999999997 0.85503076171875 0.29025 Q 0.84903076171875 0.30299999999999994 0.84303076171875 0.3105 Q 0.83703076171875 0.32099999999999995 0.8272807617187501 0.32475 Q 0.8175307617187499 0.3284999999999999 0.8100307617187501 0.3434999999999999 Q 0.79503076171875 0.372 0.77703076171875 0.40499999999999997 Q 0.75903076171875 0.43799999999999994 0.7395307617187501 0.46799999999999997 L 0.75753076171875 0.46649999999999997 Q 0.79353076171875 0.46349999999999997 0.82578076171875 0.45899999999999996 Q 0.85803076171875 0.45449999999999996 0.90003076171875 0.45599999999999996 Q 0.90753076171875 0.45599999999999996 0.91578076171875 0.45824999999999994 Q 0.92403076171875 0.46049999999999996 0.92403076171875 0.46499999999999997 Q 0.92403076171875 0.471 0.8850307617187501 0.4815 Q 0.87003076171875 0.4875 0.81978076171875 0.49424999999999997 Q 0.76953076171875 0.5009999999999999 0.71703076171875 0.5069999999999999 Q 0.70203076171875 0.5355 0.69003076171875 0.5542499999999999 Q 0.67803076171875 0.573 0.67353076171875 0.582 Q 0.64053076171875 0.651 0.61428076171875 0.7072499999999999 Q 0.58803076171875 0.7635 0.58503076171875 0.7995 Q 0.58353076171875 0.8055 0.58353076171875 0.81075 Q 0.58353076171875 0.816 0.58353076171875 0.822 Q 0.58353076171875 0.882 0.62253076171875 0.882 Q 0.64653076171875 0.882 0.68403076171875 0.85575 Q 0.7215307617187501 0.8295 0.76053076171875 0.79125 Q 0.79953076171875 0.753 0.83178076171875 0.71775 Q 0.86403076171875 0.6825 0.8760307617187499 0.6645 Q 0.88053076171875 0.6599999999999999 0.8850307617187501 0.6599999999999999 Q 0.8910307617187501 0.6599999999999999 0.89478076171875 0.6645 Q 0.89853076171875 0.6689999999999999 0.89553076171875 0.6765 Q 0.88203076171875 0.702 0.84978076171875 0.74025 Q 0.8175307617187499 0.7785 0.77778076171875 0.81675 Q 0.73803076171875 0.855 0.70053076171875 0.882 Q 0.68103076171875 0.897 0.65178076171875 0.90825 Q 0.62253076171875 0.9195 0.5925307617187501 0.9195 M 1.0095505371093751 0.9269999999999999 Q 0.942050537109375 0.9269999999999999 0.892550537109375 0.8955 Q 0.843050537109375 0.864 0.843050537109375 0.7995 Q 0.843050537109375 0.7649999999999999 0.8640505371093751 0.7155 Q 0.8790505371093751 0.6809999999999999 0.9195505371093751 0.6359999999999999 Q 0.960050537109375 0.591 1.014050537109375 0.5482499999999999 Q 1.0680505371093751 0.5055 1.123550537109375 0.47774999999999995 Q 1.179050537109375 0.44999999999999996 1.224050537109375 0.44999999999999996 Q 1.240550537109375 0.44999999999999996 1.254050537109375 0.45449999999999996 Q 1.2795505371093752 0.46349999999999997 1.289300537109375 0.483 Q 1.299050537109375 0.5025 1.299050537109375 0.5235 Q 1.299050537109375 0.5429999999999999 1.293050537109375 0.5609999999999999 Q 1.287050537109375 0.579 1.278050537109375 0.5925 Q 1.251050537109375 0.633 1.200800537109375 0.6645 Q 1.1505505371093752 0.696 1.098800537109375 0.714 Q 1.047050537109375 0.732 1.014050537109375 0.735 L 1.011050537109375 0.735 Q 0.991550537109375 0.735 0.991550537109375 0.723 Q 0.991550537109375 0.7155 1.003550537109375 0.7155 Q 1.039550537109375 0.7124999999999999 1.094300537109375 0.68175 Q 1.149050537109375 0.651 1.191050537109375 0.6179999999999999 Q 1.2090505371093752 0.603 1.233800537109375 0.576 Q 1.258550537109375 0.5489999999999999 1.258550537109375 0.5235 Q 1.258550537109375 0.49649999999999994 1.233050537109375 0.49649999999999994 Q 1.219550537109375 0.49649999999999994 1.205300537109375 0.5025 Q 1.191050537109375 0.5085 1.182050537109375 0.5115 Q 1.1385505371093751 0.5325 1.086050537109375 0.57675 Q 1.033550537109375 0.621 0.990800537109375 0.67575 Q 0.948050537109375 0.7304999999999999 0.9315505371093751 0.7859999999999999 Q 0.927050537109375 0.7979999999999999 0.9255505371093751 0.80925 Q 0.924050537109375 0.8205 0.924050537109375 0.831 Q 0.924050537109375 0.867 0.947300537109375 0.882 Q 0.970550537109375 0.897 1.003550537109375 0.897 Q 1.053050537109375 0.897 1.105550537109375 0.87525 Q 1.158050537109375 0.8534999999999999 1.207550537109375 0.819 Q 1.257050537109375 0.7845 1.298300537109375 0.74475 Q 1.339550537109375 0.705 1.368050537109375 0.6675 Q 1.3725505371093751 0.6615 1.378550537109375 0.66075 Q 1.3845505371093751 0.6599999999999999 1.3860505371093752 0.663 Q 1.392050537109375 0.6645 1.392050537109375 0.6712499999999999 Q 1.392050537109375 0.6779999999999999 1.389050537109375 0.6839999999999999 Q 1.347050537109375 0.7424999999999999 1.287800537109375 0.7979999999999999 Q 1.228550537109375 0.8534999999999999 1.157300537109375 0.89025 Q 1.086050537109375 0.9269999999999999 1.0095505371093751 0.9269999999999999 M 1.4625051269531248 0.9195 Q 1.399505126953125 0.9195 1.3747551269531249 0.888 Q 1.350005126953125 0.8564999999999999 1.350005126953125 0.8099999999999999 Q 1.350005126953125 0.7665 1.370255126953125 0.7004999999999999 Q 1.390505126953125 0.6345 1.423505126953125 0.5579999999999999 Q 1.4565051269531248 0.4815 1.494755126953125 0.40574999999999994 Q 1.5330051269531249 0.32999999999999996 1.571255126953125 0.26625 Q 1.6095051269531249 0.2024999999999999 1.638005126953125 0.16349999999999998 Q 1.6665051269531248 0.126 1.699505126953125 0.08849999999999991 Q 1.7325051269531249 0.050999999999999934 1.7730051269531248 0.025499999999999967 Q 1.813505126953125 0 1.864505126953125 0 Q 1.899005126953125 0 1.9237551269531248 0.018749999999999933 Q 1.9485051269531248 0.03749999999999998 1.9485051269531248 0.07499999999999996 Q 1.9485051269531248 0.08999999999999997 1.943255126953125 0.10949999999999993 Q 1.9380051269531249 0.129 1.9260051269531249 0.1499999999999999 Q 1.834505126953125 0.30899999999999994 1.707755126953125 0.44399999999999995 Q 1.581005126953125 0.579 1.4400051269531249 0.6945 Q 1.4340051269531249 0.717 1.428755126953125 0.735 Q 1.423505126953125 0.753 1.420505126953125 0.7635 Q 1.419005126953125 0.7709999999999999 1.419005126953125 0.77925 Q 1.419005126953125 0.7875 1.419005126953125 0.7949999999999999 Q 1.419005126953125 0.831 1.431005126953125 0.858 Q 1.443005126953125 0.885 1.471505126953125 0.885 Q 1.4985051269531249 0.885 1.5382551269531248 0.85875 Q 1.578005126953125 0.8325 1.618505126953125 0.79425 Q 1.659005126953125 0.756 1.6920051269531249 0.72 Q 1.7250051269531248 0.6839999999999999 1.7385051269531249 0.6645 Q 1.743005126953125 0.6599999999999999 1.747505126953125 0.6599999999999999 Q 1.753505126953125 0.6599999999999999 1.757255126953125 0.6659999999999999 Q 1.7610051269531248 0.6719999999999999 1.7565051269531249 0.6809999999999999 Q 1.741505126953125 0.7064999999999999 1.708505126953125 0.744 Q 1.675505126953125 0.7815 1.635005126953125 0.81975 Q 1.594505126953125 0.858 1.5570051269531249 0.8865 Q 1.5105051269531249 0.9195 1.4625051269531248 0.9195 M 1.461005126953125 0.6345 Q 1.518005126953125 0.5954999999999999 1.579505126953125 0.53325 Q 1.641005126953125 0.471 1.700255126953125 0.39749999999999996 Q 1.759505126953125 0.32399999999999995 1.8082551269531248 0.252 Q 1.857005126953125 0.17999999999999994 1.887005126953125 0.12149999999999994 Q 1.896005126953125 0.10499999999999998 1.899755126953125 0.09224999999999994 Q 1.903505126953125 0.0794999999999999 1.903505126953125 0.06899999999999995 Q 1.903505126953125 0.04049999999999998 1.8795051269531249 0.04049999999999998 Q 1.858505126953125 0.04049999999999998 1.827005126953125 0.06299999999999994 Q 1.746005126953125 0.126 1.677005126953125 0.22424999999999995 Q 1.6080051269531248 0.3225 1.554005126953125 0.43049999999999994 Q 1.500005126953125 0.5385 1.461005126953125 0.6345 M 1.828518310546875 0.9195 Q 1.765518310546875 0.9195 1.740768310546875 0.888 Q 1.7160183105468751 0.8564999999999999 1.7160183105468751 0.8099999999999999 Q 1.7160183105468751 0.7665 1.736268310546875 0.7004999999999999 Q 1.7565183105468751 0.6345 1.789518310546875 0.5579999999999999 Q 1.822518310546875 0.4815 1.860768310546875 0.40574999999999994 Q 1.899018310546875 0.32999999999999996 1.937268310546875 0.26625 Q 1.975518310546875 0.2024999999999999 2.004018310546875 0.16349999999999998 Q 2.032518310546875 0.126 2.0655183105468753 0.08849999999999991 Q 2.098518310546875 0.050999999999999934 2.139018310546875 0.025499999999999967 Q 2.179518310546875 0 2.2305183105468753 0 Q 2.265018310546875 0 2.289768310546875 0.018749999999999933 Q 2.314518310546875 0.03749999999999998 2.314518310546875 0.07499999999999996 Q 2.314518310546875 0.08999999999999997 2.309268310546875 0.10949999999999993 Q 2.304018310546875 0.129 2.292018310546875 0.1499999999999999 Q 2.200518310546875 0.30899999999999994 2.073768310546875 0.44399999999999995 Q 1.947018310546875 0.579 1.806018310546875 0.6945 Q 1.800018310546875 0.717 1.794768310546875 0.735 Q 1.789518310546875 0.753 1.7865183105468752 0.7635 Q 1.785018310546875 0.7709999999999999 1.785018310546875 0.77925 Q 1.785018310546875 0.7875 1.785018310546875 0.7949999999999999 Q 1.785018310546875 0.831 1.797018310546875 0.858 Q 1.8090183105468751 0.885 1.837518310546875 0.885 Q 1.864518310546875 0.885 1.904268310546875 0.85875 Q 1.9440183105468751 0.8325 1.984518310546875 0.79425 Q 2.025018310546875 0.756 2.058018310546875 0.72 Q 2.091018310546875 0.6839999999999999 2.104518310546875 0.6645 Q 2.109018310546875 0.6599999999999999 2.113518310546875 0.6599999999999999 Q 2.119518310546875 0.6599999999999999 2.123268310546875 0.6659999999999999 Q 2.127018310546875 0.6719999999999999 2.1225183105468752 0.6809999999999999 Q 2.107518310546875 0.7064999999999999 2.074518310546875 0.744 Q 2.0415183105468753 0.7815 2.001018310546875 0.81975 Q 1.960518310546875 0.858 1.923018310546875 0.8865 Q 1.876518310546875 0.9195 1.828518310546875 0.9195 M 1.8270183105468751 0.6345 Q 1.884018310546875 0.5954999999999999 1.9455183105468752 0.53325 Q 2.007018310546875 0.471 2.066268310546875 0.39749999999999996 Q 2.125518310546875 0.32399999999999995 2.174268310546875 0.252 Q 2.223018310546875 0.17999999999999994 2.2530183105468753 0.12149999999999994 Q 2.262018310546875 0.10499999999999998 2.265768310546875 0.09224999999999994 Q 2.269518310546875 0.0794999999999999 2.269518310546875 0.06899999999999995 Q 2.269518310546875 0.04049999999999998 2.245518310546875 0.04049999999999998 Q 2.224518310546875 0.04049999999999998 2.193018310546875 0.06299999999999994 Q 2.1120183105468753 0.126 2.043018310546875 0.22424999999999995 Q 1.974018310546875 0.3225 1.920018310546875 0.43049999999999994 Q 1.866018310546875 0.5385 1.8270183105468751 0.6345 M 2.3355314941406253 0.38249999999999995 Q 2.316031494140625 0.38249999999999995 2.295031494140625 0.3787499999999999 Q 2.274031494140625 0.375 2.274031494140625 0.351 Q 2.274031494140625 0.3464999999999999 2.294281494140625 0.32999999999999996 Q 2.314531494140625 0.3135 2.3362814941406254 0.29625 Q 2.3580314941406253 0.2789999999999999 2.362531494140625 0.2759999999999999 Q 2.388031494140625 0.255 2.3940314941406253 0.255 Q 2.401531494140625 0.255 2.3940314941406253 0.27449999999999997 Q 2.386531494140625 0.29399999999999993 2.386531494140625 0.30899999999999994 Q 2.386531494140625 0.3165 2.377531494140625 0.3344999999999999 Q 2.3685314941406252 0.3524999999999999 2.3565314941406252 0.36749999999999994 Q 2.3445314941406252 0.38249999999999995 2.3355314941406253 0.38249999999999995 M 2.1720314941406254 0.9195 Q 2.145031494140625 0.9195 2.1232814941406253 0.9075 Q 2.1015314941406253 0.8955 2.0910314941406254 0.8624999999999999 Q 2.0895314941406253 0.858 2.0887814941406253 0.8534999999999999 Q 2.0880314941406253 0.849 2.0880314941406253 0.843 Q 2.0880314941406253 0.813 2.1015314941406253 0.768 Q 2.115031494140625 0.723 2.1345314941406253 0.6809999999999999 Q 2.1255314941406254 0.693 2.1135314941406254 0.7102499999999999 Q 2.1015314941406253 0.7275 2.0790314941406254 0.7545 Q 2.073031494140625 0.7605 2.0655314941406253 0.7605 Q 2.0550314941406254 0.7605 2.0550314941406254 0.7484999999999999 Q 2.0550314941406254 0.7394999999999999 2.061031494140625 0.7334999999999999 Q 2.1000314941406253 0.6839999999999999 2.130781494140625 0.645 Q 2.1615314941406254 0.606 2.176531494140625 0.579 Q 2.176531494140625 0.5774999999999999 2.175781494140625 0.57675 Q 2.175031494140625 0.576 2.175031494140625 0.5745 Q 2.175031494140625 0.57 2.179531494140625 0.5609999999999999 Q 2.191531494140625 0.5249999999999999 2.2042814941406252 0.50025 Q 2.2170314941406253 0.4755 2.2320314941406254 0.4725 Q 2.235031494140625 0.4725 2.238031494140625 0.47174999999999995 Q 2.2410314941406253 0.471 2.244031494140625 0.471 Q 2.260531494140625 0.471 2.274031494140625 0.4785 Q 2.2875314941406253 0.486 2.2875314941406253 0.5009999999999999 Q 2.2875314941406253 0.5145 2.2777814941406254 0.534 Q 2.268031494140625 0.5534999999999999 2.2530314941406253 0.582 Q 2.220031494140625 0.651 2.1937814941406253 0.7072499999999999 Q 2.167531494140625 0.7635 2.164531494140625 0.7995 Q 2.163031494140625 0.8055 2.163031494140625 0.81075 Q 2.163031494140625 0.816 2.163031494140625 0.822 Q 2.163031494140625 0.882 2.202031494140625 0.882 Q 2.226031494140625 0.882 2.2635314941406253 0.85575 Q 2.3010314941406254 0.8295 2.340031494140625 0.79125 Q 2.379031494140625 0.753 2.411281494140625 0.71775 Q 2.4435314941406254 0.6825 2.455531494140625 0.6645 Q 2.460031494140625 0.6599999999999999 2.4645314941406253 0.6599999999999999 Q 2.470531494140625 0.6599999999999999 2.4742814941406253 0.6645 Q 2.478031494140625 0.6689999999999999 2.4750314941406253 0.6765 Q 2.461531494140625 0.702 2.4292814941406253 0.74025 Q 2.397031494140625 0.7785 2.3572814941406253 0.81675 Q 2.317531494140625 0.855 2.280031494140625 0.882 Q 2.260531494140625 0.897 2.2312814941406254 0.90825 Q 2.202031494140625 0.9195 2.1720314941406254 0.9195 M 2.2860512695312503 1.4144999999999999 Q 2.27255126953125 1.4144999999999999 2.27255126953125 1.4055 Q 2.27255126953125 1.398 2.2755512695312503 1.392 Q 2.28155126953125 1.3815 2.3025512695312504 1.33125 Q 2.3235512695312504 1.281 2.35430126953125 1.2037499999999999 Q 2.3850512695312505 1.1265 2.4210512695312505 1.03725 Q 2.4570512695312505 0.948 2.4915512695312505 0.86025 Q 2.5260512695312505 0.7725 2.5545512695312502 0.7004999999999999 Q 2.5275512695312505 0.705 2.50655126953125 0.7064999999999999 Q 2.4855512695312503 0.708 2.4765512695312504 0.708 Q 2.4630512695312503 0.708 2.4495512695312502 0.699 Q 2.43605126953125 0.69 2.43605126953125 0.6749999999999999 Q 2.43605126953125 0.6615 2.4540512695312504 0.6517499999999999 Q 2.47205126953125 0.6419999999999999 2.49380126953125 0.6367499999999999 Q 2.51555126953125 0.6315 2.5260512695312505 0.6315 Q 2.54255126953125 0.6315 2.5508012695312505 0.6435 Q 2.5590512695312504 0.6555 2.5695512695312503 0.6555 L 2.5725512695312505 0.6555 Q 2.58905126953125 0.6134999999999999 2.60030126953125 0.58575 Q 2.61155126953125 0.5579999999999999 2.6145512695312503 0.546 Q 2.6265512695312503 0.5145 2.64755126953125 0.46499999999999997 Q 2.6685512695312505 0.4155 2.69405126953125 0.35924999999999996 Q 2.7195512695312503 0.30299999999999994 2.7473012695312504 0.24974999999999992 Q 2.77505126953125 0.1965 2.79905126953125 0.15749999999999997 Q 2.82155126953125 0.123 2.8523012695312504 0.08775 Q 2.8830512695312502 0.05249999999999999 2.9198012695312503 0.029249999999999998 Q 2.9565512695312504 0.006000000000000005 2.99855126953125 0.006000000000000005 Q 3.0165512695312504 0.006000000000000005 3.03305126953125 0.009749999999999925 Q 3.0495512695312503 0.013499999999999956 3.0645512695312505 0.020999999999999908 Q 3.1095512695312504 0.046499999999999986 3.1095512695312504 0.09449999999999992 Q 3.1095512695312504 0.11399999999999999 3.10280126953125 0.13724999999999998 Q 3.0960512695312503 0.16049999999999998 3.0840512695312503 0.18599999999999994 Q 3.0645512695312505 0.22949999999999993 3.0203012695312506 0.2895 Q 2.97605126953125 0.3494999999999999 2.9183012695312502 0.414 Q 2.8605512695312503 0.4785 2.79905126953125 0.5385 Q 2.7375512695312505 0.5985 2.68055126953125 0.6435 Q 2.7195512695312503 0.6405 2.7600512695312505 0.6367499999999999 Q 2.80055126953125 0.633 2.8410512695312504 0.633 Q 2.8515512695312504 0.633 2.8628012695312504 0.63525 Q 2.8740512695312503 0.6375 2.8740512695312503 0.6419999999999999 Q 2.8740512695312503 0.645 2.86730126953125 0.6487499999999999 Q 2.8605512695312503 0.6525 2.8410512695312504 0.6585 Q 2.8290512695312504 0.6615 2.7930512695312504 0.66825 Q 2.7570512695312503 0.6749999999999999 2.7098012695312503 0.6809999999999999 Q 2.6625512695312503 0.6869999999999999 2.6160512695312503 0.693 Q 2.5950512695312504 0.747 2.5673012695312503 0.8212499999999999 Q 2.53955126953125 0.8955 2.5118012695312504 0.97125 Q 2.48405126953125 1.047 2.4615512695312503 1.107 Q 2.4435512695312505 1.1595 2.4390512695312503 1.1835 Q 2.43455126953125 1.2075 2.43455126953125 1.2195 L 2.43455126953125 1.23 Q 2.43455126953125 1.236 2.43380126953125 1.242 Q 2.4330512695312505 1.248 2.4285512695312503 1.2585 Q 2.40155126953125 1.3275 2.3925512695312503 1.35225 Q 2.3835512695312504 1.377 2.3670512695312502 1.3875 Q 2.35505126953125 1.3935 2.32955126953125 1.404 Q 2.3040512695312505 1.4144999999999999 2.2860512695312503 1.4144999999999999 M 2.6370512695312502 0.6465 Q 2.69255126953125 0.6045 2.75105126953125 0.5445 Q 2.80955126953125 0.4845 2.8650512695312504 0.41624999999999995 Q 2.9205512695312503 0.348 2.9663012695312503 0.2819999999999999 Q 3.0120512695312502 0.21599999999999997 3.0420512695312505 0.16499999999999992 Q 3.0675512695312506 0.123 3.0675512695312506 0.08549999999999991 Q 3.0675512695312506 0.04499999999999993 3.0390512695312504 0.04499999999999993 Q 3.0150512695312504 0.04499999999999993 2.9820512695312504 0.07199999999999995 Q 2.9535512695312502 0.09299999999999997 2.91380126953125 0.14174999999999993 Q 2.8740512695312503 0.1905 2.8358012695312502 0.24974999999999992 Q 2.79755126953125 0.30899999999999994 2.7690512695312504 0.36149999999999993 Q 2.7360512695312504 0.4245 2.7090512695312503 0.48224999999999996 Q 2.68205126953125 0.54 2.6655512695312504 0.5782499999999999 Q 2.6490512695312503 0.6164999999999999 2.64605126953125 0.6239999999999999 Q 2.6415512695312504 0.633 2.6370512695312502 0.6465 M 2.8320109863281253 1.455 Q 2.8140109863281255 1.4505 2.8005109863281255 1.446 Q 2.7720109863281253 1.431 2.7600109863281252 1.41225 Q 2.7480109863281252 1.3935 2.7480109863281252 1.3725 Q 2.7480109863281252 1.338 2.7712609863281252 1.29825 Q 2.7945109863281252 1.2585 2.8320109863281253 1.2165 Q 2.8695109863281254 1.1715 2.9272609863281254 1.125 Q 2.9850109863281253 1.0785 3.0480109863281255 1.03575 Q 3.1110109863281252 0.993 3.1590109863281253 0.9615 Q 3.1845109863281253 0.9089999999999999 3.2122609863281255 0.849 Q 3.2400109863281257 0.7889999999999999 3.2655109863281253 0.73275 Q 3.2910109863281254 0.6765 3.3097609863281257 0.6299999999999999 Q 3.3285109863281255 0.5834999999999999 3.3375109863281254 0.5579999999999999 Q 3.3135109863281254 0.5865 3.2820109863281255 0.62925 Q 3.2505109863281256 0.6719999999999999 3.2130109863281255 0.71925 Q 3.1755109863281255 0.7665 3.1357609863281253 0.8085 Q 3.0960109863281255 0.8504999999999999 3.0540109863281253 0.8767499999999999 Q 3.0120109863281255 0.903 2.9715109863281253 0.903 Q 2.911510986328125 0.903 2.8882609863281252 0.87225 Q 2.8650109863281252 0.8414999999999999 2.8650109863281252 0.7995 Q 2.8650109863281252 0.7695 2.8732609863281255 0.7394999999999999 Q 2.8815109863281254 0.7095 2.8950109863281255 0.6839999999999999 Q 2.9040109863281254 0.6659999999999999 2.9235109863281252 0.6359999999999999 Q 2.9430109863281255 0.606 2.9685109863281256 0.5745 Q 2.9940109863281252 0.5429999999999999 3.0202609863281253 0.522 Q 3.0465109863281254 0.5009999999999999 3.0705109863281255 0.5009999999999999 Q 3.0990109863281257 0.5009999999999999 3.1140109863281253 0.52125 Q 3.1290109863281255 0.5415 3.1170109863281255 0.5489999999999999 Q 3.0930109863281254 0.5654999999999999 3.0577609863281254 0.59925 Q 3.0225109863281254 0.633 2.9880109863281255 0.6765 Q 2.9790109863281256 0.6885 2.9662609863281255 0.714 Q 2.9535109863281255 0.7394999999999999 2.9430109863281255 0.7687499999999999 Q 2.9325109863281256 0.7979999999999999 2.9325109863281256 0.822 Q 2.9325109863281256 0.8325 2.9355109863281252 0.8422499999999999 Q 2.9385109863281254 0.852 2.9460109863281256 0.8564999999999999 Q 2.9580109863281256 0.8654999999999999 2.9730109863281253 0.8654999999999999 Q 2.9940109863281252 0.8654999999999999 3.0202609863281253 0.852 Q 3.0465109863281254 0.8385 3.0705109863281255 0.8175 Q 3.1545109863281255 0.7364999999999999 3.2205109863281254 0.6479999999999999 Q 3.2865109863281257 0.5594999999999999 3.3600109863281253 0.4725 Q 3.3645109863281255 0.45749999999999996 3.3855109863281254 0.45749999999999996 Q 3.4095109863281254 0.45749999999999996 3.4357609863281255 0.47174999999999995 Q 3.462010986328125 0.486 3.4575109863281255 0.49499999999999994 Q 3.4440109863281254 0.5249999999999999 3.4222609863281255 0.5745 Q 3.4005109863281255 0.6239999999999999 3.3750109863281255 0.6809999999999999 Q 3.3495109863281254 0.738 3.3240109863281253 0.79425 Q 3.2985109863281252 0.8504999999999999 3.2775109863281253 0.8955 Q 3.2955109863281256 0.8865 3.3420109863281255 0.8504999999999999 Q 3.3885109863281255 0.8145 3.4440109863281254 0.7627499999999999 Q 3.4995109863281253 0.711 3.5445109863281257 0.6555 Q 3.5535109863281256 0.6465 3.5580109863281253 0.6465 Q 3.5670109863281256 0.6465 3.5670109863281256 0.6585 Q 3.5670109863281256 0.6689999999999999 3.5580109863281253 0.6825 Q 3.5355109863281253 0.7124999999999999 3.4957609863281256 0.753 Q 3.4560109863281254 0.7935 3.4102609863281255 0.83475 Q 3.3645109863281255 0.876 3.321010986328125 0.90975 Q 3.2775109863281253 0.9435 3.2460109863281255 0.9615 Q 3.1995109863281255 1.0605 3.1560109863281256 1.14825 Q 3.1125109863281253 1.236 3.0765109863281253 1.29 Q 3.0525109863281252 1.3275 3.0180109863281253 1.3665 Q 2.9835109863281253 1.4055 2.9430109863281255 1.43175 Q 2.9025109863281253 1.458 2.8575109863281254 1.458 Q 2.8515109863281256 1.458 2.8455109863281254 1.45725 Q 2.8395109863281256 1.4565000000000001 2.8320109863281253 1.455 M 2.8365109863281255 1.422 Q 2.8485109863281255 1.422 2.8657609863281253 1.4144999999999999 Q 2.8830109863281255 1.407 2.9025109863281253 1.3904999999999998 Q 2.9595109863281253 1.3439999999999999 2.9985109863281254 1.28175 Q 3.0375109863281256 1.2195 3.0682609863281254 1.1505 Q 3.0990109863281257 1.0815 3.1305109863281255 1.0185 Q 3.0720109863281255 1.062 2.9985109863281254 1.1212499999999999 Q 2.9250109863281253 1.1804999999999999 2.8650109863281252 1.2389999999999999 Q 2.8290109863281256 1.275 2.8125109863281255 1.31025 Q 2.7960109863281253 1.3455 2.7960109863281253 1.3725 Q 2.7960109863281253 1.422 2.8365109863281255 1.422" fill="#595959" fill-rule="nonzero"></path></g><g></g><g clip-path="url(#SvgjsClipPath1001)"><g clip-path="url(#a9afa81f1-5d16-433d-95ae-4cc80aa62c04b5b23ec6-aa13-4988-b54c-3eb69877f7a8)"><path d=" M 3.8991535513179283 0.5126287657655162 C 3.93362557578367 0.5100919349594337 3.97018756384033 0.5131691313518524 4.001996259703696 0.5155725894814092 C 4.210684624161131 0.5312665660779539 4.357833185698333 0.6733799653322966 4.385644826194067 0.8846670345179137 C 4.387073426306544 0.895614593801398 4.391492599320499 0.9237851030453097 4.383565862411521 0.9262531850490591 C 4.371316200811853 0.9300549938180662 4.365468427685419 0.8989296610498884 4.362772099657925 0.8919434077568233 C 4.356209338987231 0.8750174526224739 4.353511635983689 0.8564649008249291 4.347175746360693 0.8389202064695839 C 4.313646955462959 0.7464516923558441 4.267834128564389 0.669708779287722 4.180825644331925 0.6299403470902574 C 4.14771622112842 0.6148004858405155 4.1146741717512025 0.5979694040533853 4.074775116829306 0.5925121241242032 C 4.043391288564356 0.5881891994335131 4.012393828568518 0.5807175795959781 3.9874407632737836 0.5769171458030178 C 3.9946855120636204 0.5841275201916878 4.001314271584555 0.5924131258488439 4.00823452602738 0.5997898723391595 C 4.057490292946778 0.6522630832077362 4.1146741717512025 0.6826074295814127 4.1891414994621075 0.7110378092981425 C 4.21529629382162 0.7210118855405934 4.272404548943477 0.7315717015789204 4.273357407343811 0.7422277659405132 C 4.276704099041375 0.749671886257115 4.255965335329645 0.7522417164883172 4.239047630051576 0.7505449960467424 C 4.221727056791835 0.7488084012998143 4.201326537187583 0.7456720809373893 4.180825644331925 0.7422277659405132 C 4.150675169580827 0.7370936053822954 4.114575173475844 0.7278345166841061 4.083092346935535 0.7162365937305532 C 4.004172846785555 0.6871228509186348 3.9356839149255154 0.632247556896548 3.8897088408534404 0.5696366476359682 C 3.8786292838694774 0.554529785811346 3.8627414356503538 0.5388674336638746 3.8574780273437503 0.5186937851073209 C 3.8659905040486047 0.5119990267361473 3.8850847964085324 0.5136366232077159 3.8991535513179283 0.5126287657655162" fill="#f6d5b4" transform="matrix(1,0,0,1,0,0)" fill-rule="nonzero"></path></g><g clip-path="url(#a9afa81f1-5d16-433d-95ae-4cc80aa62c04b5b23ec6-aa13-4988-b54c-3eb69877f7a8)"><path d=" M 4.220334206056571 -0.0219509213664093 C 4.241646334779757 -0.026823836475762322 4.331160025369231 0.114629574276185 4.345095407602101 0.15375864261195402 C 4.374227025102626 0.23554771777130784 4.381778393550867 0.28875654082484603 4.365890545331744 0.38353226474487656 C 4.366898402773943 0.3843448755884509 4.367158273246762 0.3848316171089675 4.367969509114289 0.38561122852742213 C 4.3782378302307245 0.3729394492814298 4.385482579020561 0.35614274189546613 4.395001538191568 0.3429828461529106 C 4.447084255862895 0.27082135327225026 4.520773347131391 0.21987711576755628 4.609180182003306 0.1839091173630519 C 4.612579122790643 0.18251901657988162 4.658580321407604 0.16508707026036235 4.659086312592774 0.16311535460945578 C 4.65339528673566 0.18528546838575577 4.628048978291582 0.28560234577381444 4.635366600811891 0.2613958924724154 C 4.602556922386559 0.3699392515476239 4.545466541953307 0.46485522302441346 4.480256927964545 0.5374085840783711 C 4.452057544223654 0.5687291634451743 4.413489466114921 0.5968639233118729 4.370049847872882 0.6122664049865262 C 4.361992488239471 0.6150933557384533 4.337007798495664 0.6221758573547843 4.330541286148235 0.6174638144428901 C 4.328364699066377 0.6158715921808612 4.328623194563149 0.6071638688773815 4.328460947389643 0.6070689955301621 C 4.353286139912038 0.5987490154718398 4.378853819499628 0.5861968591419067 4.397340372446933 0.5718022349094529 C 4.413976207635438 0.5587770868194698 4.433271246498178 0.5380218233951801 4.446120397654188 0.5214643618413347 C 4.505208618283232 0.44532918818583517 4.531129666714813 0.40125983091442696 4.5508701978166695 0.31023229169758393 C 4.552139300707735 0.30438451857115106 4.5512689408702 0.2722912026661266 4.557196462607339 0.27020536400334766 C 4.486917311934553 0.2949508079150364 4.418135510176575 0.36255425520102835 4.382526380520249 0.4083107080816849 C 4.356165339753738 0.44218324299108375 4.332880120403599 0.4943567090814891 4.31390545095973 0.5353296202958255 C 4.299480577254251 0.5358796107144883 4.301365669414217 0.5216829830327533 4.3035106320470025 0.5114146619163178 C 4.329859298029094 0.3839860068402733 4.315680545035965 0.23576496398667945 4.273445405810797 0.1373826778962673 C 4.266654399116358 0.1215924529764566 4.243326555508773 0.07229818672775122 4.238950006752263 0.07417365405539159 C 4.234574832971799 0.07604912138303195 4.216575021545011 0.11984073349301541 4.211476610364007 0.14364019388460397 C 4.182908733042611 0.2769592463445277 4.163279575000534 0.3717707196417712 4.216173528539387 0.49789864737767797 C 4.219033478716434 0.5047556529223572 4.2367734196704046 0.5278552505061972 4.2307303999453465 0.5301294608873681 C 4.213771445385877 0.5363993516601248 4.17952354201574 0.47853348473655877 4.171468932334423 0.4656678338679877 C 4.100767664015312 0.3526008035992772 4.128806175558745 0.18579420952301892 4.168347736708512 0.07266255538011542 C 4.174456755283809 0.05511786102477023 4.2067205682186195 -0.01886410014166421 4.220334206056571 -0.021950921366409585" fill="#f6d5b4" transform="matrix(1,0,0,1,0,0)" fill-rule="nonzero"></path></g></g></g><defs><clipPath id="SvgjsClipPath1001"><path d=" M 3.8574780273437503 -0.02207380158495109 h 0.8016082852490235 v 0.9486476031699022 h -0.8016082852490235 Z"></path></clipPath><clipPath id="a9afa81f1-5d16-433d-95ae-4cc80aa62c04b5b23ec6-aa13-4988-b54c-3eb69877f7a8"><path d=" M 3.798008938349782 0.9500498954885543 L 4.787991691942928 0.9500498954885543 L 4.787991691942928 -0.03993285810459153 L 3.798008938349782 -0.03993285810459153 Z"></path></clipPath></defs></svg>