<svg xmlns="http://www.w3.org/2000/svg" version="1.1" xmlns:xlink="http://www.w3.org/1999/xlink" xmlns:svgjs="http://svgjs.dev/svgjs" viewBox="0 0 5.996004104553994 5.193613902052661"><g transform="matrix(1,0,0,1,2.1959187591074896,1.6635234850102412)"><g><path d=" M -1.2436975662872913 0.7309209976031917 Q -1.2049873480567168 0.7497496726638881 -1.164444732192592 0.748506169992396 Q -1.123902116328467 0.747262667320904 -1.085397524961786 0.7278231085891604 Q -1.0468929335951047 0.7083835498574167 -1.0120621328764743 0.6727035089199536 Q -0.977231332157844 0.6370234679824902 -0.9499447442182583 0.5869790665112442 Q -0.922179444209557 0.5360566930843622 -0.912210940374587 0.4885290281796755 Q -0.9022424365396171 0.44100136327498873 -0.9092722091053376 0.3995817749420002 Q -0.9163019816710581 0.35816218660901167 -0.9401701267855066 0.32464634485029065 Q -0.9640382718999551 0.2911305030915695 -1.0035470099035704 0.2695884599813704 Q -1.057981271152996 0.23990831169620697 -1.1075012375431956 0.248216315590856 Q -1.1570212039333951 0.256524319485505 -1.202547571971619 0.2846641455910124 Q -1.2480739400098426 0.31280397169651974 -1.2899672429780857 0.3520366260345965 Q -1.3318605459463286 0.39126928037267306 -1.3716800962729192 0.4225207349274315 Q -1.4114996465995095 0.4537721894821899 -1.4491669915886245 0.4685428063098987 Q -1.4868343365777394 0.4833134231376075 -1.5245871306700831 0.46272880416563933 Q -1.5456584576053447 0.4512397145068664 -1.5590693919479852 0.43196805552126316 Q -1.572480326290626 0.41269639653566004 -1.5762752941861138 0.3872779343738333 Q -1.5800702620816016 0.36185947221200654 -1.5740496335866765 0.3309725488863321 Q -1.5680290050917514 0.30008562556065754 -1.5493592343962455 0.2658447192908576 Q -1.5182429499037355 0.20877654217452435 -1.4723173219789913 0.1819934000937684 Q -1.4263916940542472 0.15521025801301247 -1.3707616521188049 0.176430494445742 L -1.3382092314189484 0.11672840146250107 Q -1.3735664661921696 0.10428388663904153 -1.409519592334855 0.10859929166848692 Q -1.4454727184775402 0.11291469669793242 -1.4787899297797733 0.13119620186141256 Q -1.5121071410820064 0.1494777070248926 -1.5407136854153627 0.1800090945024334 Q -1.569320229748719 0.210540481979974 -1.5903835607898025 0.24917124802795343 Q -1.6124043159691173 0.28955795798720463 -1.6217352033697814 0.3317383389754808 Q -1.6310660907704455 0.3739187199637569 -1.6259521659679592 0.41258521415594507 Q -1.6208382411654731 0.45125170834813316 -1.5989653959968542 0.4842491119464411 Q -1.5770925508282354 0.517246515544749 -1.53758381282462 0.5387885586549482 Q -1.485783467442102 0.567032570732765 -1.4398151149657437 0.5579270465518475 Q -1.3938467624893853 0.54882152237093 -1.3509940364093667 0.5203628880482696 Q -1.3081413103293482 0.49190425372560925 -1.2678440474204145 0.4535098452518709 Q -1.2275467845114807 0.41511543677813256 -1.186888988320552 0.38546002228268333 Q -1.146231192129623 0.35580460778723416 -1.1046526994314443 0.34430552326073893 Q -1.0630742067332652 0.33280643873424376 -1.0174196650401988 0.3576994663282518 Q -0.9603514879238655 0.38881575082076175 -0.9567511525377767 0.44488078078693294 Q -0.9531508171516878 0.5009458107531042 -0.9909690706118154 0.57030559524834 Q -1.0211279309660943 0.6256178284534014 -1.0538055268604771 0.6510820136271591 Q -1.0864831227548597 0.6765461988009167 -1.116250719116796 0.6830952603239773 Q -1.1460183154787325 0.6896443218470378 -1.1708796128756207 0.6840616798431585 Q -1.195740910272509 0.6784790378392791 -1.2111451455874347 0.6712189046199508 L -1.2436975662872913 0.7309209976031917 M -0.5104659828951855 0.018999254027504464 L -0.9440073916712686 -0.45856419398380355 L -0.7455779280014538 -0.6387023297233233 L -0.7825465752614298 -0.6794247942824271 L -1.246782671235213 -0.2579822155186998 L -1.2098140239752369 -0.2172597509595961 L -1.0113845603054221 -0.3973978866991158 L -0.5778431515293391 0.08016556131219216 L -0.5104659828951855 0.018999254027504464 M -0.43733175095887195 -0.8762356737237712 L -0.15935091975465532 -0.23379761641161845 L 0.2554805115383348 -0.41329381027491263 L 0.23363916051514638 -0.46377108620658175 L -0.09767532332726392 -0.32041240039983576 L -0.214030156959886 -0.5893186158176369 L 0.07047812556406735 -0.71242441249379 L 0.052210813799218825 -0.7546417705457313 L -0.23229746872473453 -0.6315359738695783 L -0.3319734524851036 -0.8618959058486502 L -0.0006589686426933805 -1.005254591655396 L -0.02250031966588184 -1.0557318675870655 L -0.43733175095887195 -0.8762356737237712 M 0.43033337495493246 -0.44386938819584615 L 0.36334041257034205 -1.1406562587602511 L 0.4539227057437147 -1.1493653438702478 L 0.5156519353695159 -0.5073260131359033 L 0.8749948786177305 -0.5418752408799563 L 0.8802586113765197 -0.48712770104989594 L 0.43033337495493246 -0.44386938819584615 M 1.0560425893827272 -0.46246228221105123 L 1.2065275654181389 -1.1460954235870537 L 1.2953998737970192 -1.1265323767024504 L 1.1567387173072472 -0.4966132678631337 L 1.5092980945025856 -0.41900601593630005 L 1.497474274956946 -0.3652919833996141 L 1.0560425893827272 -0.46246228221105123 M 2.0137085558335093 -0.884105991543179 L 1.6895208560361819 -0.26370101469328483 L 1.770173503026668 -0.22155661371963226 L 2.0943612028239955 -0.8419615905695266 L 2.0137085558335093 -0.884105991543179 M 2.5046113652876274 -0.5747042015996852 L 2.029328360876057 -0.060791693756656495 L 2.0961369868956505 0.0009950968168476737 L 2.33242053766026 -0.2544928356536866 L 2.5600103625621724 -0.044010362271419634 L 2.5912432457092187 -0.0777817556439615 L 2.363653420807306 -0.28826422902622845 L 2.5340763266748834 -0.47253857112422876 L 2.7991083485767883 -0.22742833599197593 L 2.8364520132091258 -0.26780717589392816 L 2.5046113652876274 -0.5747042015996852 M 3.031387623356811 -0.023276531176898596 L 2.766787600784777 0.3983581780856087 L 2.534569053928396 0.5260278553622069 L 2.578410339332813 0.6057708280562849 L 2.8185155538182785 0.4737651994759532 L 3.3103338238970013 0.4840990862942134 L 3.2843181160746 0.4367790805197055 L 2.857865456726688 0.4270256536812118 L 2.855938367258362 0.4235204680682853 L 3.081010177166206 0.06698199835595897 L 3.031387623356811 -0.023276531176898596" fill="#595959" fill-rule="nonzero"></path></g><g clip-path="url(#SvgjsClipPath1001)"><g clip-path="url(#SvgjsClipPath1000b59f6bb5-d782-43c8-b16a-d931aa6bd8e0)"><path d=" M 0.4229199065956543 0.19676832480257192 C 0.38189236342211474 0.19162344559709232 0.34039814566977183 0.19138211034588054 0.2993135336772643 0.19604941559845876 C 0.25478202949588974 0.2006689645370845 0.2110208045055038 0.2109449188396893 0.16908744480740112 0.22662893750461355 C 0.12928041524522405 0.2409613225925474 0.09273565496631621 0.2630973970236611 0.06159614060841036 0.291739106302729 C 0.0322822930067267 0.3189001770038122 0.01282095452156411 0.3550290797071925 0.00626888825986625 0.3944511021127757 C 0.014959062719185382 0.42819382451702814 0.02179732706870919 0.46492145793675815 0.02772113891060113 0.5034549912772204 C 0.033644950752493075 0.5419885246176825 0.03875783301214544 0.5823337091525097 0.044014497112620427 0.6233115337869564 C 0.03215089960851379 0.6809555263245698 0.027030470662279236 0.7397835226612572 0.028756368164524156 0.7986103541178943 C 0.030282549175619483 0.8461166477036198 0.03863259295340111 0.8931565834928127 0.05355010879597605 0.9382857855666188 C 0.067858604097076 0.9820412754990017 0.09015972883936355 1.0227628640674213 0.1193216740618761 1.058383881568939 C 0.14661469004503438 1.091434360409796 0.1800931402769995 1.1188430466882853 0.2178812503089653 1.1390742506385931 C 0.25222403378022495 1.1582458556341235 0.2908278977615423 1.1684950015728166 0.33015761417053285 1.1688831018779389 C 0.6334452779281345 1.0396577346202007 0.9192145621999082 1.2543010178738407 1.2032009516454816 1.2117358417167123 C 1.5141895707975424 1.155448126671473 1.4706926883118834 0.7360710046336878 1.213921325697216 0.5842718883667986 C 1.1938028605198063 0.5548687875680257 1.1779014350143888 0.5227929756372658 1.166680364076536 0.48897903554319905 C 1.1473116235097691 0.45266821927839973 1.1258719475187788 0.41750062177737 1.102467393965153 0.3836502102301794 C 0.9639824761584391 0.1846158836162441 0.7641372199622632 0.06441426468853376 0.48674754137363174 0.18932617672159308 C 0.4466956717940828 0.1943930487921822 0.4229199065956543 0.19676832480257192 0.4229199065956543 0.19676832480257192 Z" fill="#bac6d4" transform="matrix(1,0,0,1,0,0)" fill-rule="nonzero"></path></g><g clip-path="url(#SvgjsClipPath1000b59f6bb5-d782-43c8-b16a-d931aa6bd8e0)"><path d=" M 1.601338620156949 0.7324937124340211 L 1.601338620156949 0.7324937124340211 C 1.5951007258787477 0.6995182768882516 1.5826063780061874 0.6680422814586744 1.5645304689063584 0.6397659276506967 C 1.5466633536004895 0.6120869417936119 1.5254110539938734 0.5867464725535777 1.5012664589444058 0.5643322226815176 C 1.4789860248905324 0.5430870178815673 1.4556013462991417 0.5237857435695388 1.4273395876670476 0.5013385225803113 C 1.4004581347068503 0.48024285089481644 1.3736399457566153 0.4603779517667634 1.3410704831734754 0.4492319834661938 C 1.3239148070578863 0.44337848116059353 1.305802394129512 0.44084118193571353 1.287698663860119 0.4417553277434175 C 1.284558468456553 0.44191061213150606 1.2814412781475184 0.44221542963405 1.2782665751021551 0.44254325223112556 C 1.2778392746166247 0.4274022970830875 1.2760141166118917 0.4123331919111001 1.2728143676981611 0.3975280335063787 C 1.2650390556905966 0.3628360863326887 1.252862782190149 0.32927982275891526 1.2365813438108608 0.29767442069188593 C 1.2172157416477905 0.25835889293948666 1.192007741694873 0.2222028646993253 1.1618147865830983 0.19043617253274317 C 1.1277034809763486 0.15766122665891166 1.0879580492491998 0.13131039508490733 1.0444888044718406 0.11265019664770612 C 1.0016285890499463 0.09452493919043797 0.9565761076737767 0.08209973552849535 0.9104841288251582 0.07569251228265991 C 0.8683317989704634 0.06980166998651596 0.8257327934647051 0.06773813027109918 0.7832084433289745 0.06952714694818604 C 0.7753119446309975 0.06986647209252747 0.7672544102712978 0.07031507143589405 0.7594614344987118 0.07074641695836191 C 0.716614445933571 0.0731159416951187 0.6723296389602041 0.07557173553636905 0.6293273660069749 0.06217701924533376 C 0.6093877003216941 0.056604035095049014 0.5900979285569313 0.04946095324298125 0.5696694046128535 0.04189802841571144 C 0.5633430036166581 0.039551508773486274 0.5569840120698764 0.037216491678526926 0.5505924299725082 0.03489297713083339 C 0.5237377783951989 0.024981001911352947 0.4961819138837777 0.017083730290527052 0.46815367371845096 0.01126674504686052 C 0.4398295014235174 0.005221016231147819 0.4110381134545535 0.0016208901274299347 0.38209736634929564 0.0005061120796955054 C 0.35351853997590826 -0.0008965373840447422 0.32487111809827873 0.00039940366076565676 0.29653566851257085 0.004376719234640528 C 0.2421192170363195 0.011187030996926181 0.18981643730536765 0.029673493615259266 0.14320671345932953 0.05857097067750255 L 0.14256832208607703 0.058967808558172914 C 0.04107559628620607 0.1205524466193175 -0.0159252766895134 0.24588420162757893 0.003962627533071386 0.3637853111021273 C 0.0045377548963618656 0.3663043689533396 0.004980602966095536 0.36889244208814675 0.005429202309462111 0.37139424611846034 C 0.006185282918871615 0.3762260698291313 0.007253419912563247 0.3810038696552304 0.008626910449357178 0.3856976636434946 L 0.015309890410792573 0.40719017320965983 L 0.016212840371158627 0.40930664190656874 C 0.02141352942629208 0.4225843036784072 0.027830496122573753 0.4353527774647079 0.03538183538963036 0.44744908863999344 L 0.04131139850515517 0.4571284821641722 L 0.04831069851640031 0.4659854435588456 C 0.04984628857638589 0.46785460748953966 0.05134737099457405 0.46977553288292984 0.05284270213912929 0.47169645827632 C 0.055889677080143856 0.47575859807216236 0.059177645435719316 0.4796342523604517 0.06268888259866238 0.48330252846752203 C 0.06505840733541908 0.48580433249783556 0.06741642952491005 0.4882371212445543 0.0697399440726036 0.4906354023494756 C 0.07708627129919646 0.4978322127195001 0.08391290694629644 0.5055410065203215 0.09016846801668135 0.5137037608910567 C 0.10659985678589046 0.5349834733328045 0.10555887625833467 0.5637398414973286 0.102821270009072 0.5864401185264038 C 0.10241868085476866 0.5896090702981344 0.1019988378795666 0.5928297835325611 0.10157899490436456 0.5960792531351522 C 0.09749665302006948 0.6215831968128341 0.09573530319321222 0.6474047777718109 0.09631657953025666 0.6732268376469374 C 0.0971842356687475 0.7027251110437234 0.10136873703226777 0.7320320544338749 0.10879109204002707 0.7605944354043934 L 0.11852799830053501 0.7922264403853705 L 0.11875804924585119 0.7927498062859649 C 0.12400941733823465 0.8279143375557695 0.13336343038096454 0.8623423558451069 0.14662872127090795 0.8953295228024549 C 0.15992185890011862 0.9288141907533598 0.17674741928199772 0.9607860330603042 0.19682008626526776 0.9907028934569145 C 0.20715385040738243 1.0059985185904996 0.2189516393805178 1.0202521738396755 0.2320466372668096 1.0332623183404106 C 0.24543097868873626 1.0464260146808935 0.2604517549814966 1.057814821001437 0.2767397846681134 1.0671488225854857 C 0.3089914028521822 1.0850810659703098 0.34434896923591934 1.0967394223880405 0.3809413603490821 1.1015069312684589 C 0.4162716206616622 1.1061660035049863 0.4519090103177736 1.1080888150759431 0.4875354658613401 1.1072582049013637 L 0.5111156877562495 1.1067981030107312 L 0.512421226870919 1.106757844095301 C 0.5124614857863493 1.1068211081052628 0.5125132472490455 1.1069188797570222 0.5125535061644757 1.1069936463142498 C 0.5126385512062076 1.1071671496159496 0.5127448035037921 1.1073294258522606 0.5128698262142856 1.1074767532994139 L 0.5179021906430772 1.1152754803456328 C 0.5281926165804587 1.1305371763739942 0.5399818248415397 1.144732778019303 0.5530942340028215 1.1576508644728754 C 0.5867944396700824 1.1905803885292925 0.6273832920555612 1.2156196423335657 0.6719328010795337 1.230962349471513 L 0.6723986542437987 1.2357531604077225 C 0.6731060609006462 1.242924998627955 0.6738307213783921 1.250332639067136 0.6744000974680496 1.257654010401824 C 0.6836021352806974 1.3725126961245657 0.6815949407828136 1.4923059746243397 0.6798005434093471 1.5980373890916615 C 0.6797315281257524 1.601982762803834 0.67962800520036 1.6059338877896399 0.6795302335486006 1.6098850127754456 C 0.6794439644441072 1.6132840154924923 0.6793519440659807 1.6166945207568049 0.6792886800560186 1.6200992747474843 L 0.6720765829203561 1.619524147384194 C 0.66410531766515 1.6188742534636755 0.6561225498626782 1.61823011081679 0.647984497672118 1.617511201612677 L 0.6336063135898559 1.6163091854234 C 0.6040160107485607 1.6138131326667189 0.5734249862951402 1.6112365620791778 0.5418389915032269 1.6101668251834578 C 0.5230370613670613 1.6094063143020754 0.5042074785236061 1.6096847164140669 0.4854362509853292 1.6110007598602287 C 0.46527225015273366 1.6121299279792025 0.44538136494995245 1.6161987823456396 0.42639367586992843 1.623078434489329 C 0.4161287751562754 1.626907045090812 0.4064406322206283 1.6321323718839098 0.3976028000636073 1.6386068732981716 C 0.3885467645276149 1.6454512927624876 0.3805942106562572 1.653644362897272 0.37402257816869783 1.6629002531235615 C 0.3621913268308555 1.6812877833490638 0.35464191584100063 1.7020982919563497 0.35193193614471036 1.723794738348758 C 0.34665226694970386 1.763116196176928 0.350206554054839 1.800982581775973 0.35710808241432473 1.8457217393663394 C 0.3708248700288027 1.9286321000582949 0.39532529570497715 2.011162876690479 0.4172203944254457 2.0820070653006004 C 0.4689818571215889 2.2464934912016776 0.5126915367316655 2.405337917668875 0.5472451887181574 2.554186630562085 C 0.5878146729246679 2.7295027047139215 0.6143395469196248 2.8801055560651667 0.628338146942115 3.01458758742338 L 0.6293273660069747 3.0278155167790604 C 0.6300323645943101 3.035617068207138 0.6315355587702344 3.043325756288801 0.6338133594406403 3.0508206113106793 C 0.6354756651528011 3.056368169994197 0.6393723407572675 3.060973332072203 0.6445682411341723 3.0635309260393995 C 0.6468837285844067 3.0646734171605043 0.6494284280337712 3.065275177617619 0.6520103892151512 3.065290815771068 C 0.6540025086823661 3.065283549703979 0.6559746215037122 3.064893032313613 0.657819175584385 3.0641405610444874 C 0.6691491846412075 3.0595395421381637 0.6676998636857155 3.042285721239449 0.6676308484021206 3.041572563308969 L 0.6667106446208559 3.030886696899032 L 0.6658824612177175 3.022185019892447 L 0.6659572277749454 3.0144955670452536 C 0.6660377456058061 3.006150469003908 0.6661182634366667 2.9975178072809188 0.6663138067401855 2.9890864401350803 L 0.6686143161933474 2.8876914859869682 L 0.6742275592590625 2.7031791252961166 C 0.6828544697084198 2.475221643582302 0.6886057433413245 2.324745320250981 0.6891003528737543 2.311442624338072 C 0.6939486765462931 2.20226619696464 0.6986359645571104 2.0955340608851927 0.7027481252046374 1.9901074639204148 C 0.733380441458477 1.955932112444285 0.7666483116304078 1.9242141788826768 0.8022451590538919 1.8952459566192814 C 0.864101203868957 1.8450144561045452 0.929568196179192 1.7994007420214033 0.9981162851697303 1.7587739845840837 C 1.061259518385391 1.72059127893523 1.130067756129464 1.6828169137143116 1.2084633670195895 1.643276907488091 C 1.2418207540904374 1.6264544321118442 1.2772025894800676 1.6092121137603959 1.3165528036764023 1.5905722359161514 L 1.37111513663177 1.5648007787671052 L 1.3724781884827684 1.5641451335729541 C 1.379218681180533 1.5608956639703628 1.3855795898185255 1.5578187325767585 1.3924063516207836 1.554304704387054 C 1.3926306512924669 1.5541896789143959 1.3980023408656002 1.5514290675706015 1.3992331134230416 1.5507734223764507 C 1.3996414538509778 1.5505146150629696 1.3999865302689523 1.5503190717594508 1.4003373579605596 1.5501235284559323 C 1.4020530601330015 1.5491395166903685 1.4036640636355244 1.5479832940809024 1.4051454227176678 1.5466727642761893 L 1.4059045908372112 1.5459481037984435 C 1.4059632734573397 1.5458839780020808 1.4060267181086903 1.5458243784811152 1.4060943828670973 1.5457698143158234 C 1.4064630168828431 1.5454116805283338 1.406805158773097 1.545027251438161 1.4071181095737542 1.5446195595892422 C 1.408332079848945 1.5430974799077992 1.409282675234336 1.5413829090899769 1.4099304823802448 1.5395469362450198 C 1.4100742642210673 1.5389200474190337 1.41021804606189 1.5384944531701987 1.410338822808181 1.53812062038406 C 1.410892627391852 1.5363395604065593 1.4110458160770893 1.5344580891186475 1.4107874221515477 1.5326109002437371 C 1.4101168542527862 1.5269553723995444 1.406633182186793 1.522021973448945 1.4015278716025705 1.5194979963607143 C 1.4007385113746278 1.5191086762647616 1.3999093341754671 1.5188059301711148 1.3990548239404215 1.518595046400348 C 1.3988822857314345 1.518554787484918 1.3986867424279157 1.518508777295855 1.3983589198308402 1.5184110056440956 C 1.3968545391424858 1.518038662350565 1.3953072470430834 1.5178684602196306 1.3937579009245162 1.5179048935643993 L 1.3910548023170508 1.518111939415184 L 1.389478953341635 1.518364995455032 C 1.3867758547341695 1.5188653562610945 1.384768660236286 1.5193714683407904 1.3829397552210223 1.5198488240523214 L 1.3657261932377383 1.524771914282088 C 1.3358483267147978 1.5339739520947355 1.3059129474555282 1.5436821019870788 1.27698979235565 1.553085434376878 C 1.268171172785196 1.5559495686460647 1.259352553214742 1.5588137029152516 1.250533933644288 1.5616778371844382 C 1.213501482722014 1.5738130245498672 1.1751922490532352 1.5863565523432324 1.1360835883494824 1.5958173974693608 C 1.0442883435439234 1.6180918603680738 0.9501145555736343 1.62906228871302 0.8556572372826786 1.6284846317042598 C 0.8507111419583798 1.6284846317042603 0.8457267048098619 1.6284577924273067 0.840703925837125 1.6284041138733993 C 0.8045974299697488 1.6281568091071845 0.7642579967085544 1.6263451579128196 0.7137963218534477 1.6226528402404945 L 0.7141241444505233 1.6055197960880712 C 0.7145209823311938 1.5851947950693857 0.7149235714854971 1.5641796412147515 0.7152168864407753 1.5435095637780918 C 0.7162118567792678 1.4660974206791932 0.7167869841425581 1.3760094704933725 0.7109954515942231 1.2864276323872474 C 0.7100694965393254 1.27122701617548 0.7089249930863774 1.255945882132852 0.7075964488771765 1.2409465604982362 C 0.7209639245629332 1.2440747433685884 0.7345161413672499 1.246352975704509 0.7481716843573196 1.2477675710268614 C 0.7898952509658016 1.2521881703064324 0.8320812400732855 1.2475123930021004 0.8718240674647731 1.234062285959649 C 0.8741245769179349 1.2331938436410805 0.8764941016546917 1.2323369038697778 0.8788406212969168 1.2314742128248422 C 0.886259764283364 1.2287711142173767 0.8939377145832919 1.2259702439581521 0.9007817302064485 1.2226805154401308 L 0.9021620358783458 1.22206512916141 C 0.9101545863881895 1.2182725384793145 0.918357838506421 1.2149409274247425 0.9267314768381147 1.21208666940832 C 0.9343680475130293 1.2094588940753603 0.9424346841207998 1.2083073538869777 0.9505014907629106 1.208693417964906 C 0.9589683644328254 1.2094774191330278 0.9672738936465959 1.2115024490043274 0.9751514495535404 1.2147034989112917 C 0.9791198283602448 1.2162620940658087 0.9832492428286704 1.2179702223347815 0.987510936590653 1.2197243607928174 C 1.0020420930799316 1.2261357535933501 1.0170383706387371 1.231436360930482 1.03237087092731 1.2355806221987358 C 1.0525808500208178 1.24105424669391 1.0733439421168975 1.244229869216689 1.0942660777646325 1.2450472185984973 C 1.1151707066201182 1.2458614575848117 1.1361035075576569 1.2445123220856609 1.1567306606916115 1.241021327055464 C 1.1773665442994519 1.2372572716483217 1.1975427410916146 1.2313056309892292 1.216917739259959 1.223267145350687 C 1.2508135790074 1.2090493457466107 1.2810389767032366 1.1873212768369616 1.3053148149977065 1.1597213229807215 C 1.3096120257195503 1.1550019416703934 1.3135692370166119 1.1499838364267665 1.317156687407857 1.1447047475252075 C 1.3187325363832734 1.142490507176539 1.320314136632322 1.1402762668278705 1.3219935085331305 1.1380447726583036 C 1.3233047989214328 1.1358247810360025 1.324662099498798 1.1336392970554985 1.3260194000761636 1.1314480618013618 C 1.3295230164031273 1.1260557912067626 1.332677348529947 1.1204444610347526 1.3354629913813933 1.1146485915196467 C 1.343622386102915 1.0987256299990729 1.3499360410348231 1.0819226632670886 1.354281158708258 1.0645665007243117 C 1.3610320022145335 1.037705518408535 1.363104016626952 1.0098821586789553 1.360406265127301 0.9823175365001399 L 1.3593307769579477 0.9719652439609112 L 1.3574156028381905 0.961768235809771 C 1.3562362880710248 0.954909591432343 1.3545953624761078 0.9481383715301325 1.3525040151556895 0.9415007475274143 C 1.3509560375179162 0.9357756486403846 1.3490348362937148 0.9301580562608197 1.3467527415227851 0.9246840234248009 L 1.345602486796204 0.921716366230222 C 1.3450757357485252 0.9201719159300922 1.344461267420891 0.9186587876732926 1.3437620792336746 0.9171843626074929 L 1.3422955044572837 0.9143087257910405 C 1.3416981319507701 0.9131276692567123 1.3410217809410008 0.9119882483794587 1.3402710561385012 0.910898220526728 C 1.3398972233523625 0.9103230931634376 1.3395118880189578 0.9097479658001472 1.3391610603273507 0.9091728384368566 L 1.338959765750199 0.9089542900388061 C 1.3389109362570202 0.908913863415344 1.338882673092812 0.908853771415623 1.338882673092812 0.9087903787402684 C 1.338882673092812 0.9087269860649135 1.3389109362570202 0.9086668940651925 1.338959765750199 0.9086264674417306 C 1.3390287810337937 0.9085286957899712 1.3390690399492242 0.9085401983372371 1.339149557780085 0.9086264674417306 L 1.348926722956023 0.9116516373726385 L 1.357864202181557 0.9141189337611547 L 1.369941876810657 0.9170923422293665 C 1.3862237587231592 0.9209830185755271 1.4027533887074326 0.9237520486624068 1.4194143326009043 0.9253799275343825 C 1.4364506582487198 0.9270021304031618 1.4536124089352844 0.9267784491582585 1.4706006679337569 0.9247127797929653 C 1.4879926203694316 0.9222607100280829 1.5048829425096466 0.9170538314096855 1.5206367485400285 0.9092878639095145 C 1.5521531068857672 0.893103135957286 1.5769963660915014 0.8663793842877114 1.5908425457768978 0.8337678898358418 C 1.6041766816569198 0.8017644075091872 1.6078261522045487 0.7665515160718183 1.6013386201569488 0.732493712434021 Z M 0.14953311445552475 0.09229068798722333 L 0.14967114502271447 0.09219866760909685 C 0.17258653159716222 0.07672476932912269 0.19730894366885712 0.06411247629567206 0.2232874475238959 0.054642850786228485 C 0.24950324782671915 0.045047307086069514 0.27673649065570816 0.03850144826549621 0.3044494210314483 0.03513453062341551 C 0.36058864314447026 0.02805169098950358 0.4175374684332488 0.03093515116908254 0.472674174793914 0.04365216687374745 C 0.5005153245050188 0.050174920809005076 0.5278907229877975 0.05854624388518891 0.5546183215155417 0.06871046609231374 L 0.5608066919445469 0.07095921408277941 C 0.586946848504826 0.08114650257959846 0.6137623286156969 0.08950784369772948 0.6410599642180994 0.09598300565954783 C 0.6714311534752705 0.10202287124345832 0.702473107950786 0.10397834610013136 0.7333621547525897 0.10179754330241492 C 0.7400221296194933 0.1014563010668626 0.7466111721115912 0.1010997221016225 0.7531292822288835 0.10072780640669465 C 0.7763299200640214 0.09942801856565818 0.7982537751526546 0.09820874855548237 0.8205974732164897 0.0985135660580263 C 0.8778909207770266 0.09842837468718431 0.9348902354690862 0.10670343750542387 0.989794192222916 0.12307725574416274 C 1.0441122878118516 0.1393826507535234 1.0942334953607724 0.16730844493602703 1.1366817208073041 0.20491787954039786 C 1.156889849846095 0.22461229468985797 1.1746460111734922 0.24667473549089228 1.189564681861864 0.27062618079633527 C 1.2049399151174802 0.2946385422925098 1.2180571269084768 0.320023899325284 1.2287481091228447 0.3464567236461855 C 1.2395512836207356 0.37241743097254704 1.2468374278902157 0.39970517277074835 1.2504131568979966 0.42759569205920595 C 1.2511516370151543 0.43431277120711015 1.2515202747832297 0.4410653703233642 1.2515174014355144 0.4478229214261323 C 1.2457321141946076 0.4495042895299472 1.2400942696833648 0.45165671123178297 1.23466041841747 0.45425859662135276 C 1.225545841620135 0.4586357332472309 1.2174607259201309 0.4648921427779978 1.210936414681738 0.47261666205758474 C 1.207129868413778 0.4770633960119659 1.2041865954445854 0.48218145318304684 1.2022577427696848 0.48770800407032694 C 1.2001912892805606 0.49480084585541634 1.2007675410543168 0.5024024649985817 1.203879601934164 0.5091027419847328 C 1.2098974061542536 0.5219715714303133 1.2234528127566966 0.5295684304053594 1.2375705628757203 0.5279841733215593 C 1.244853185710982 0.5270502617318618 1.251535279373147 0.5234624504857346 1.2563369687398886 0.5179079419167102 C 1.2596049367789581 0.5140793699489625 1.2624725073579233 0.5099264031494533 1.264894863905651 0.5055139472378003 C 1.2710309848283672 0.49435308182874854 1.2750056547314566 0.4821344353225408 1.2766102082958783 0.46949947174855033 C 1.2884169709867648 0.46789469772048775 1.3003865755717734 0.46789469772048775 1.31219333826266 0.46949947174855033 C 1.3283105197270777 0.47225062743168866 1.3438265844666923 0.4777833217819614 1.3580482429378102 0.48585034268689875 C 1.3833926045527898 0.5009835002926296 1.4073344505696295 0.5183504330532973 1.4295883356575134 0.5377440846765992 C 1.4337254184907826 0.5411258335727469 1.437856750050419 0.5444941628304182 1.4419823303364228 0.5478490724496126 C 1.4689602240048167 0.5697076105301843 1.4939054605447 0.5939617952977224 1.516513085345236 0.620315120224213 C 1.5367556061172754 0.6440944596324908 1.552737634460176 0.671192305837942 1.563754046965916 0.7004131081096784 C 1.5750133625294491 0.7287929174435421 1.5786420762968942 0.7596270699483378 1.574278877714132 0.7898454131013478 C 1.5700398345331426 0.8193383629292457 1.5555136880738751 0.846384169483683 1.5332665454378878 0.8662050731254247 C 1.5132003517326829 0.8849024637059982 1.485272166971297 0.8956976043149604 1.4525014098110056 0.897417235131199 C 1.4254289818241073 0.8980308468651163 1.3984095071050326 0.8947379149687489 1.3722768939056162 0.8876400699552609 C 1.3711266391790355 0.887346754999983 1.3699763844524546 0.8870649425919704 1.3688606373676713 0.8867946327312239 C 1.366686655934433 0.8862655155569967 1.3644379079439672 0.8857191445618707 1.3622409214161977 0.8850692506413524 L 1.347966260259328 0.880997348909256 C 1.344101404378016 0.8797895814463458 1.3403860816111595 0.8787888598342205 1.3367972868642268 0.8778283971375255 C 1.3348188487345076 0.8772992799632982 1.3328461618784209 0.876764411515438 1.3308274648332716 0.8761950354257805 L 1.3223040773093064 0.8738657696044541 C 1.3218439754186742 0.8737564954054288 1.3213436146126114 0.8736069622909735 1.320837502532916 0.8734631804501508 C 1.3199533777422467 0.8731785583659651 1.3190473875383197 0.8729669682971074 1.3181286526518177 0.8728305403505311 L 1.3180308810000583 0.8728305403505311 L 1.3063788006197932 0.8748089784802504 L 1.3060912369381477 0.8748434861220479 C 1.304257994356071 0.8749374978249834 1.3025559739234076 0.8758231360772446 1.301426954021862 0.8772705235951338 C 1.2995865464593326 0.87942149993384 1.2988216270661563 0.8813481766008631 1.2992127136731937 0.8826997259045957 L 1.3004952476933316 0.8967845950315796 C 1.3004952476933316 0.8969053717778706 1.3004952476933316 0.8970031434296301 1.3004952476933316 0.8971066663550223 C 1.3005016696714828 0.8975003041413984 1.300577603814277 0.8978897100018816 1.3007195473650148 0.8982569210816033 L 1.3036641994650622 0.904554565709634 L 1.3157418740941622 0.9262138622111534 C 1.315920163576782 0.9266279539127226 1.3160754479648706 0.926915517594368 1.316224981079326 0.9272088325496459 C 1.3165921733966561 0.9279019343444203 1.3169037222458642 0.9286231122361056 1.317156687407857 0.9293655601619852 L 1.3212343404135862 0.9399421523728971 C 1.3223356661367172 0.9426114061341572 1.3232316333414067 0.9453608333931831 1.32391443392652 0.9481664736679511 C 1.3242825154390259 0.949506520424418 1.324644845677899 0.9508465671808848 1.3250646886531008 0.9521578575691869 C 1.326364478906948 0.9562532354922565 1.3273829093005143 0.9604326432394391 1.3281128636785404 0.9646668777207549 C 1.3316795578300349 0.9815848518701867 1.3329428574222197 0.9989073396931947 1.3318684453608274 1.0161637818297846 C 1.331066780423078 1.0334989478277055 1.3280496889551212 1.0506602259468518 1.322890707219863 1.0672293404163453 C 1.309196517575846 1.113529968913199 1.279123487531487 1.1532661906521866 1.2382837208062003 1.1790225972927495 C 1.2120965237220083 1.1954586482695424 1.1829847229028727 1.2066889921460418 1.1525437334868556 1.2120981719555852 C 1.1219345233035083 1.2174592674099194 1.0906207696100712 1.2173930773181834 1.0600344971015823 1.2119026286520664 C 1.0448166507737422 1.2091304855964555 1.0298865266805164 1.2049623722938336 1.015433370078405 1.1994511212368275 C 1.0105965489531321 1.197725739146956 1.0057424740069605 1.1956552806391105 1.0006123379264094 1.1934928017531383 C 0.9899496812564512 1.188664685097434 0.9788938303248143 1.1847568477771844 0.967565519631738 1.1818119650047085 C 0.9580406315049698 1.1794428740894884 0.9481802634273594 1.1787231391933124 0.9384123135865439 1.1796839937605337 C 0.9290577439641804 1.1807371648895768 0.9198767507178971 1.182985058604404 0.9110937638302462 1.186372724995602 C 0.9037838950428243 1.1891275850657637 0.8970491536186926 1.1920894909867095 0.8905329605926116 1.194953625255896 C 0.8824696469877529 1.19867970729553 0.874214585209503 1.2019759726614034 0.8658024839711208 1.2048285620835935 C 0.8365127108356073 1.2151365750566954 0.8056086872186055 1.2200963357809067 0.7745642790587192 1.219471304752969 C 0.750830008618251 1.2190437017472524 0.7272334679761943 1.2157610406104689 0.7042837152646231 1.209694139577031 C 0.7001543007961969 1.1716264594008343 0.6951564440092027 1.1367967462799626 0.6890025812219945 1.1032380646319633 C 0.6858681370920614 1.0860935179322742 0.6824806369222804 1.0688051893917623 0.6792254160460564 1.052086236940908 C 0.6737156959057335 1.023991265244168 0.6680161837355248 0.994935830850733 0.6635531953963908 0.9664900314623858 C 0.6888070379184759 0.9536531887137423 0.7150961096944837 0.9392289944424169 0.7487008015315465 0.919778187015933 L 0.7516857125470241 0.9180528049260614 C 0.7518735681006982 0.9179654055001132 0.7520543225388353 0.9178634907637166 0.752226332268517 0.9177479874235175 L 0.7523643628357067 0.9176502157717581 L 0.7641199661413642 0.9286696560524038 C 0.7749350195094445 0.938754836442464 0.7862607673062258 0.9482780626831134 0.7980524805755024 0.9572017245452444 C 0.8274414888396461 0.9790105541612195 0.854938328078564 0.9914333052082939 0.8821130959940391 0.9951601305224161 C 0.9028176810724963 0.9982025542742228 0.9425014691395394 0.999329803906272 0.9751572008271728 0.9729199553839734 C 0.9881096845806898 0.962170194386259 0.9982663867065825 0.9484437479149728 1.0047590062157339 0.9329140959934875 C 1.0106514340005983 0.9186777830805594 1.0150236521540874 0.9038588937746207 1.017802894815162 0.8887040555773483 C 1.0270912017323033 0.8403588494191505 1.0362989908185838 0.7766347375665654 1.024928722846331 0.7124965340124111 C 1.0198025209995958 0.6818264986798704 1.0077770106973911 0.6527214205976749 0.9897596845811178 0.6273776842454197 C 0.9514136318341946 0.5751358195881802 0.8867814604901153 0.5491278659259002 0.8229382415850816 0.5602488184021552 C 0.7921405462080554 0.5653025100274851 0.762935012239501 0.5774316165175603 0.737618097240939 0.5956824152544815 C 0.7123979068423053 0.6132573730569407 0.6907442655406312 0.6354613818076525 0.6738077162838599 0.6611146553760394 C 0.6571925118932257 0.6864732039420406 0.6444749146012922 0.7141805058469665 0.6360793612520045 0.743311858137515 C 0.6206371915476551 0.7956484481969486 0.6161627006612552 0.8549498306258301 0.6228054217072603 0.9196114000805787 C 0.6236911178467276 0.9288134378932263 0.6249448954987009 0.9380499833476714 0.6261584142352438 0.9469874625732055 L 0.6265207444741168 0.9496733073597722 C 0.6114351537350075 0.956873901948169 0.5990239052351989 0.9624008759093905 0.5874983528748577 0.9670709100993091 C 0.5463594954927112 0.9846600231838553 0.5027943715704181 0.9959182734839772 0.45828448816438605 1.0004628048119546 C 0.4364400083561002 1.0022941462751578 0.4144631645004414 1.0018121979449897 0.39271996874927145 0.9990249864037283 C 0.38869407720623755 0.9981853004533243 0.3846221754741409 0.9974376348810465 0.38064229412017087 0.9967244769505663 C 0.37409159345229226 0.9955282120349223 0.3673165931127304 0.9942859369302147 0.3608521615493454 0.9925950624821407 C 0.35705056967799537 0.9912665182729398 0.35313970360762004 0.9900702533572956 0.34934961428353584 0.9889142473570818 C 0.34278282066978144 0.9870407125309807 0.3363288805421963 0.9847921067917953 0.33001958360334305 0.9821795059329504 C 0.25514375217655527 0.9516977556785549 0.19190849858276696 0.8862482617360983 0.15652091191950374 0.8026017380191309 C 0.1532196808542164 0.7948317673410765 0.15007373417701747 0.7865326794887949 0.14694504132071728 0.777399656959742 C 0.14509842584515664 0.7622103015465986 0.1442817965587765 0.7469133939021936 0.14450075002673274 0.7316137675681867 C 0.14466582580216264 0.7151492142123518 0.1461525134540255 0.6987244890546442 0.1489464845449685 0.6824978907431779 C 0.15152821700265892 0.6673745560761284 0.15529933808926236 0.6524785316310341 0.16022473213909416 0.6379485251827002 C 0.16168555564185227 0.6332152269828187 0.16353171447801468 0.6285164364247355 0.16531460930421518 0.6239671789811078 C 0.16607377742375862 0.6220347510404518 0.16683294554330205 0.6201080743734286 0.16754610347378224 0.618215905348203 C 0.1685410738122748 0.6160764315567624 0.16947853141443825 0.6138966988498915 0.17042174029023466 0.6117227174166535 C 0.1720435994547138 0.6079671357343666 0.173722971355522 0.6040792747585231 0.17568990693797543 0.6004157134543626 L 0.1772657559133914 0.5972870205980625 C 0.17934196569487 0.5931346010351052 0.18149294203357638 0.5888441509049582 0.18395448714845966 0.5848067568146591 L 0.18452961451175012 0.5837542737398375 C 0.18683012396491205 0.5796478643659434 0.18922265379620049 0.5754034244248597 0.1919200011300328 0.5714465481654212 L 0.19739521362855816 0.5628598966314943 L 0.20257135989817246 0.5555615303913382 C 0.20511342284391637 0.5516506643209628 0.20792004437677392 0.5479813517431695 0.21138806237741553 0.5436276376030607 C 0.21452825778098153 0.5391013852539644 0.21814580889607865 0.5348224376710834 0.22164833453851765 0.5306815206553919 C 0.22284459945416185 0.5292667073416973 0.22403511309617316 0.5278576453016356 0.22520262164365287 0.526448583261574 C 0.23449783215216427 0.5156011786412296 0.2447474214018669 0.5056095133275758 0.2558281537388708 0.4965937218331653 C 0.25963036280600615 0.49306224066321747 0.2636239449285528 0.4897425755238506 0.26779080289531293 0.4866497697218728 C 0.26831992006954014 0.48610339872674674 0.2729669491649272 0.48132984161143577 0.27346730997098995 0.48072020660634784 C 0.2741114526178753 0.47993228211863986 0.274007929692483 0.47937440857624813 0.27381238638896427 0.47904658597917255 C 0.27335803577196477 0.47828166658599625 0.27225954250807993 0.4785002149840466 0.27189146099557404 0.47857498154127437 L 0.2687110066765777 0.47920762164089387 L 0.2635348604069634 0.48099626774072735 L 0.2562594992613388 0.48398693002983784 L 0.24738528404576668 0.4886627154933894 L 0.24705746144869145 0.488858258796908 C 0.2436642100052776 0.4907274227276021 0.24015593308920566 0.49265985066825807 0.2369007122129816 0.494897096111458 C 0.23555491418288182 0.4958230511663557 0.2341861110582505 0.4967260011267218 0.2328115566599863 0.49763470236072066 C 0.23022923479881202 0.4993600844505921 0.22755489255951128 0.5010854665404635 0.22503008343466607 0.5030293970283854 C 0.2236037675737057 0.5041796517549664 0.22215444661821368 0.5053299064815473 0.22069937438908874 0.5064341510190651 C 0.2178985041298641 0.5086196349995689 0.215005613492513 0.5108798855373003 0.2122219970541871 0.5132494102740572 C 0.21069790954146733 0.5146699748613847 0.20913931438695013 0.5160790369014464 0.20758071923243293 0.5174823476678752 C 0.20465332095328437 0.5201164309917455 0.20162239974874352 0.5228482859673754 0.1988100269422531 0.5257296740574606 C 0.19744122381762177 0.5272020001074843 0.19604366432482587 0.5286513210629763 0.19464610483203004 0.5301006420184684 C 0.19141388905033757 0.5334478832728189 0.18807239906961987 0.5369159012734606 0.18513349824320555 0.5405967163985196 C 0.18022191056070483 0.5462732234741966 0.17564389674891265 0.5520992636643292 0.17155474119591732 0.557850537297234 C 0.16827076395152865 0.5621122310592165 0.16535486821964596 0.5666959961446416 0.16254249541315546 0.5711302281156111 C 0.16117369228852413 0.5732869557279505 0.15980488916389282 0.5754379320666568 0.1583613194820337 0.5776234160471607 C 0.1572858313126805 0.5795673465350826 0.15618733804879567 0.5814997744757386 0.15508884478491086 0.5834379536900274 C 0.15206367485400293 0.5887636330740973 0.14894073327133564 0.5942733532144201 0.14633540631562977 0.5999096013746669 C 0.14297666251401336 0.6064430482216466 0.1401240307920926 0.6133215714866007 0.1373634194482983 0.6199700438062388 C 0.13673077934867878 0.6214826287716928 0.13610389052269214 0.6230009650107796 0.1354539966021739 0.6245710627125626 L 0.13526995584592094 0.6250714235186253 C 0.1328084107310377 0.6319326929626807 0.13028360160619248 0.6389780031629891 0.1281268739938532 0.6461038311941582 C 0.12866174244171333 0.6361368739883342 0.12959920004387682 0.6256177945137512 0.13096800316850815 0.614155506163372 C 0.13131691376890436 0.6114984177449699 0.1316830781901993 0.6088144900496143 0.13206649643239296 0.6061037230773052 C 0.13591955364650796 0.58489694680562 0.1367656374095477 0.5632530786430998 0.13457980300997227 0.5418102351350625 C 0.1327109165556559 0.5281542932824644 0.12811671443609324 0.5150131932222936 0.12107006124627892 0.5031674275955751 C 0.11429824635634839 0.49247766143850064 0.10634182809268394 0.4825861589075095 0.09735180878417948 0.47368064767967216 L 0.09332591724114617 0.4695454819376137 C 0.08705463117157441 0.4633881771959383 0.08123644716321646 0.45678577809824755 0.07591681195434317 0.4497898570085854 C 0.07473204958596495 0.4482542669486001 0.07351277957578914 0.4467416819831461 0.07229926083924622 0.445234848291325 C 0.07033807653042569 0.44280205954460633 0.0683136282116432 0.4402887529670269 0.0665192308381769 0.43775819256854875 L 0.05468310970165882 0.4180658316494828 L 0.045337290048188525 0.39700466760578546 L 0.040736271141864684 0.3821893867274227 C 0.03901010928427508 0.3773423659290307 0.03772617231262376 0.37234906382338834 0.03690017162871719 0.36727058292366765 L 0.03396127080230284 0.3520124539755712 C 0.033478163817138834 0.3487917407411445 0.033219356503658114 0.3454502507604268 0.03297780301107612 0.342235288799633 C 0.0328340211702535 0.3403258659535086 0.03269023932943088 0.33841069183375133 0.032494696025912116 0.3364840151667282 C 0.03168751280437138 0.328968922718175 0.03145678783284265 0.3214030663601284 0.03180454318996356 0.3138527534212478 C 0.031862055926292585 0.31097711660479543 0.031919568662621634 0.308101479788343 0.031919568662621634 0.3052833557082197 C 0.03432251416216504 0.2631722065007684 0.04596641232384018 0.22210635723377456 0.06602462130574724 0.18500121894964838 C 0.08594097735355703 0.14800201528170354 0.11443496151700135 0.116315079819767 0.14911902275395592 0.09259550548976703 L 0.14953311445552475 0.09231944435538783 Z M 0.7044735072945087 1.945592606001732 C 0.7065842247177849 1.8889310581703542 0.7081600736932007 1.8425355337737113 0.7094426077133386 1.7997633117657978 C 0.7107941570170713 1.7567207798971385 0.7119846706590824 1.7104977937094825 0.7130831639229672 1.6584717724262257 C 0.8277635601630888 1.6669951599501909 0.922607813643322 1.6658794128654073 1.01152250400803 1.6549347391419893 C 1.063952863660481 1.648590319433458 1.115867470107083 1.6385368133501548 1.1668759073800528 1.6248498267682645 C 1.0791459793837248 1.6700318324283643 1.0027000502551542 1.7136207352921498 0.9333741978841197 1.7579975626436435 C 0.9069183391727577 1.7749810736816112 0.8825674466110388 1.7914757264607823 0.8609886679403799 1.8070444241850554 C 0.8004622642276898 1.8504147786507903 0.743547660356464 1.9007959356750364 0.7044792585681416 1.9455926060017317 Z M 0.6698335862035232 0.7502363915915325 C 0.6866963204952 0.6921485278991942 0.7217100743723244 0.6446257538705018 0.7684276700924102 0.6163697465120405 C 0.817250231962139 0.585525666018772 0.8796457996055231 0.5837887813816347 0.9237120581808397 0.6120505400137289 C 0.9471617961481953 0.6259609709693466 0.9657572491701577 0.6467573545001717 0.9769688520215384 0.6716107297560912 C 0.9884055093435805 0.6975181287698301 0.9949363601723717 0.7253225095153981 0.9962298674181364 0.7536123892140476 C 0.9977036098987496 0.7829123947370265 0.9963244818347614 0.8122862815747663 0.9921119554969764 0.8413193121158454 L 0.9909617007703955 0.848922495858546 C 0.9869358092273621 0.8756659182515534 0.9827316282017087 0.9033237931521925 0.9724138433042776 0.9244022110167885 C 0.9672360318960822 0.9355183479747157 0.9590548939433019 0.9449663969910385 0.9487933624939375 0.951680501857656 C 0.9381162967717246 0.9584030532919261 0.9259916629173739 0.962485999098814 0.9134230296515732 0.9635913895514018 C 0.9002559588137679 0.9649389386562834 0.8869540952888073 0.9639281528335228 0.8741418307388333 0.9606064785359242 C 0.8609705728610428 0.9569984544009488 0.8483641596457122 0.9515788387088061 0.836683785567724 0.9445029123637907 C 0.8181617673355778 0.933024821508012 0.8008789256649904 0.9196584217103625 0.7851121149014667 0.904617829719596 L 0.7693478738736746 0.8898830666720937 L 0.7581098851949786 0.8792547129984857 L 0.757178178866448 0.8783690168590182 L 0.7568676100902715 0.8783690168590182 C 0.7565220985845379 0.8783918347503177 0.7561914459765363 0.8785180839279181 0.755918649940842 0.8787313470978912 C 0.7558329160318953 0.8787903679248052 0.7557425133421614 0.8788423013848651 0.7556483400800955 0.8788866314859796 L 0.7094541102606043 0.9057680844461766 C 0.6918609642175487 0.9157868031146967 0.6753433063438461 0.9248278052656231 0.6589866841318648 0.9333741978841197 L 0.6586588615347893 0.9307803734756798 C 0.6583828004004096 0.928646650957872 0.6580837341714988 0.9265186797136972 0.6578766883207141 0.9243792059222568 L 0.6578766883207141 0.9243792059222568 C 0.6504690478815326 0.8592402807559771 0.654494939424566 0.8006348024366773 0.6698393374771561 0.7502363915915324 Z M 0.25490219868397357 0.9762039326283621 C 0.3037356875104437 1.0113618350178006 0.36199425731985496 1.0310598390195245 0.42214348465521234 1.032750454987082 C 0.47466411547089893 1.0345678574550798 0.5310093432524672 1.0232896098609534 0.5943768761398123 0.9981795491796912 C 0.6058391644901915 0.9936360430096964 0.6179570980347219 0.988402384003753 0.6313748194202888 0.9822255161220134 C 0.6358090513912584 1.0090437050722485 0.6410312078499361 1.0359079042115467 0.6460865773732591 1.0618979097586434 C 0.6479231507533668 1.07129549087481 0.6497367190389427 1.0806681498052337 0.6515272822299871 1.090015886549915 C 0.6583367902113465 1.1247133203772297 0.6638292565307705 1.1599053637369743 0.6683152499644364 1.1975647034852348 C 0.6441962648488297 1.1879492720254987 0.6215121652703215 1.1750668244146705 0.6008988204395261 1.1592784749109875 C 0.5928470373534594 1.1529520739147923 0.5849160310136838 1.1461310633861672 0.5773185985446166 1.1389937328077324 C 0.575179124753176 1.1366932233545703 0.572947630583609 1.1344214702695732 0.5707909029712697 1.1322187324681705 C 0.56559441183833 1.1271803029440357 0.5607878757360915 1.1217546849918287 0.5564127188890078 1.1159886382761135 L 0.5467908381011579 1.1038419483634183 L 0.5376635668457379 1.0896132973956119 L 0.5287778490829 1.0758102406766403 L 0.49700781353473394 1.076488890965323 C 0.45570791757684453 1.0771962976221703 0.4116301564542622 1.0767074393633733 0.3690937366652983 1.0684371078792563 C 0.3243430765276661 1.0599712330916204 0.2874256510780501 1.0427691736556022 0.2592731666449812 1.0173082852827326 C 0.23339243529690956 0.9938775965022785 0.21080718374049243 0.96146916958086 0.18821042963680948 0.9153151986767989 C 0.1877675815670758 0.9144179999900657 0.18733048477097503 0.9134805423879023 0.18689913924850715 0.9125315822384729 C 0.2067547114549019 0.9365746935907082 0.22961059938069933 0.9579732166542603 0.2549079499576068 0.9762039326283622 Z M 1.2364663183382028 0.500090496201971 L 1.2362132622983548 0.5002860395054899 C 1.2356460814381638 0.5010355177631194 1.2347606322456954 0.5014761138757178 1.2338207324670665 0.5014765531475012 L 1.2337114582680413 0.5014765531475012 C 1.2323466950446442 0.5013848201509965 1.2310433579193738 0.5008747313531249 1.229978881680286 0.5000157296447434 C 1.2289553495818857 0.4992921128140206 1.228205655370584 0.49824456711876924 1.2278509104361113 0.4970423211765315 C 1.227735884963453 0.49605885338530475 1.22768987477439 0.49561600531557115 1.2287768654910087 0.4935915569967887 C 1.233328437337165 0.4865076509012702 1.2399022551409 0.48095366645995535 1.2476467942805696 0.4776490264863765 C 1.2469060614454042 0.48044129427087773 1.2459444858819022 0.48317024572009604 1.2447711574641172 0.4858100837714684 C 1.2440071854963093 0.4878393856495134 1.243068104057804 0.48979837110934654 1.2419645359312597 0.4916648803297655 C 1.2415619467769563 0.49240104335477736 1.2411536063490203 0.4931314551061562 1.2407625197419825 0.4938791206784339 L 1.2407625197419825 0.4938791206784339 C 1.240347925526408 0.4946593442041997 1.2398607490447582 0.495398774121012 1.2393074475128576 0.4960876097534693 C 1.2389623710948834 0.4965477116441017 1.238623045950542 0.49700781353473406 1.2383354822688968 0.49745066160446777 C 1.2380996800499477 0.4977612303806446 1.2378466240100998 0.49813506316678346 1.237593567970252 0.49850889595292225 C 1.237236989005012 0.49906676949531403 1.2367136231044173 0.4998259376148574 1.2364663183382028 0.500090496201971 Z M 0.6293216147333418 2.065012051715367 C 0.6178938340247601 2.097035143303381 0.6174279808604948 2.1180215407898504 0.6203956380550736 2.1198274407105826 C 0.6209999107731466 2.120191144912413 0.6217807173384773 2.1200453614081267 0.6222130405230715 2.1194881155662415 C 0.6251729328194121 2.115321756590004 0.6274645828582497 2.1107190521936263 0.6290052946835321 2.105846094508991 C 0.6300807828528853 2.103292529015981 0.631305804136694 2.100388135831364 0.6327091149031228 2.097127163681507 C 0.6410566179545613 2.0777792915137843 0.6511415610732633 2.0592283091058956 0.6628400374659108 2.041702139681204 C 0.6637889976153403 2.0402643212729776 0.664835729416529 2.038786243949321 0.6658882124913506 2.037302415352032 C 0.6660032379640086 2.037129877143045 0.6661297659839325 2.0369630902076903 0.6662505427302235 2.0367905519987035 C 0.6630930935057587 2.114605284251905 0.6596768369678133 2.1945192313811175 0.6558062298128684 2.2809953817254742 L 0.6551218282505528 2.296362784872596 C 0.6477659492740675 2.4608492107736732 0.6401685168050003 2.6309028695514023 0.6348255836000317 2.7982476784480332 L 0.6347105581273736 2.797574779432983 C 0.6161627006612557 2.69150403982132 0.5928700424479912 2.5824081302787487 0.5635097905520122 2.464035416366302 C 0.5313026582077455 2.3341198962726155 0.49289565288720716 2.198901701889391 0.44608028551536205 2.0505936087176746 C 0.4263074067654353 1.9854834399195593 0.40633898471199 1.9156054652797663 0.39422680244109237 1.8456987342718083 C 0.3879473541239665 1.8122152519174926 0.38535149369821387 1.7781450659729576 0.3864855881312023 1.7440967342729121 C 0.38719164480348944 1.7284382372532452 0.3903811882840397 1.71299137330027 0.39593493071006497 1.698333849975889 C 0.4011203923548802 1.6851978738690683 0.4101001395106681 1.6739036144028918 0.421729392953643 1.6658909154126724 C 0.4358832773642218 1.656021729858608 0.4563635627709958 1.6498966234395644 0.48432625517417893 1.6471590171903019 C 0.4955872489474065 1.646164046851809 0.5076591723028737 1.6456636860457465 0.5211344064247696 1.6456636860457465 C 0.5320963339690863 1.6456636860457465 0.5439842165683004 1.645997259916455 0.5570971204513234 1.6466529051106062 C 0.5880217187754525 1.648246007906921 0.6197860030499858 1.6509145988725886 0.6505380631651275 1.6534969207337629 C 0.6598321213559017 1.6542637572181504 0.6691415162763636 1.6550305937025376 0.6784662479265132 1.6557974301869247 C 0.6762347537569462 1.760470610305792 0.6728357510398995 1.8704407134405647 0.6680736964718543 1.9920111354929066 C 0.6609018582516221 2.0023231691167047 0.6548860260316036 2.011680491317441 0.6501987380207862 2.019818543508001 C 0.6416799251750376 2.0341022230998487 0.6346826125295936 2.0492399355529263 0.6293216147333418 2.064983295347202 Z" fill="#595959" transform="matrix(1,0,0,1,0,0)" fill-rule="nonzero"></path></g></g></g><defs><clipPath id="SvgjsClipPath1001"><path d=" M 0 0 h 1.6043925464560216 v 3.065296567044701 h -1.6043925464560216 Z"></path></clipPath><clipPath id="SvgjsClipPath1000b59f6bb5-d782-43c8-b16a-d931aa6bd8e0"><path d=" M 0 0 L 1.6043925464560216 0 L 1.6043925464560216 3.065296567044701 L 0 3.065296567044701 Z"></path></clipPath></defs></svg>